<?xml version="1.0" encoding="UTF-8"?>
<svg version="1.1" xmlns="http://www.w3.org/2000/svg" width="2700" height="1054">
<path d="M0 0 C0 219.12 0 438.24 0 664 C-80.19 664 -160.38 664 -243 664 C-243 479.53 -243 295.06 -243 105 C-229.2357792 98.1178896 -229.2357792 98.1178896 -223.17578125 95.546875 C-222.48329285 95.24930801 -221.79080444 94.95174103 -221.07733154 94.64515686 C-219.59451737 94.00826454 -218.11105521 93.37287897 -216.62698364 92.73892212 C-212.55523934 90.9991656 -208.48880608 89.24706536 -204.421875 87.49609375 C-203.1477047 86.94794258 -203.1477047 86.94794258 -201.84779358 86.38871765 C-192.23068515 82.24676305 -182.64642772 78.03051663 -173.0625 73.8125 C-161.3883951 68.67687469 -149.70790318 63.55815552 -138 58.5 C-126.14653572 53.37879941 -114.32033754 48.19715151 -102.5 43 C-89.52124541 37.2935171 -76.53067977 31.6172964 -63.51538086 25.99462891 C-50.5424863 20.38315124 -37.60460388 14.69199271 -24.66601562 9.00195312 C-23.81156357 8.62628204 -22.95711151 8.25061096 -22.07676697 7.86355591 C-20.47714593 7.16016807 -18.87765884 6.4564755 -17.27833557 5.75241089 C-15.8518322 5.12505905 -14.42431868 4.49999735 -12.99563599 3.87762451 C-11.67563355 3.29712461 -10.36087642 2.70453313 -9.05197144 2.09942627 C-5.70394228 0.57903408 -3.76422265 0 0 0 Z " fill="#1EB9CD" transform="translate(1829,0)"/>
<path d="M0 0 C0 170.28 0 340.56 0 516 C-81.84 516 -163.68 516 -248 516 C-248 381.36 -248 246.72 -248 108 C-241.97202114 104.98601057 -236.03473307 102.05060306 -229.86328125 99.390625 C-229.11851028 99.06689407 -228.37373932 98.74316315 -227.60639954 98.40962219 C-225.17617694 97.35391276 -222.7443334 96.3019929 -220.3125 95.25 C-218.57913525 94.49761174 -216.84590215 93.74492012 -215.11279297 92.99194336 C-211.52021749 91.43140757 -207.92708569 89.87216389 -204.33349609 88.31396484 C-196.8920271 85.08653667 -189.45564914 81.84743969 -182.02008057 78.60644531 C-180.41820836 77.90823624 -178.81627927 77.21015764 -177.21429443 76.51220703 C-163.56814882 70.56662964 -149.93779008 64.58549039 -136.31109619 58.5954895 C-124.3773807 53.35044821 -112.42902905 48.14177803 -100.46264648 42.97167969 C-89.79047982 38.35520983 -79.1443905 33.68010376 -68.5 29 C-54.93924516 23.03766533 -41.36786189 17.10169211 -27.76855469 11.2277832 C-22.7300266 9.05147601 -17.69367379 6.8719809 -12.67578125 4.6484375 C-11.91015869 4.30965576 -11.14453613 3.97087402 -10.35571289 3.62182617 C-8.44922693 2.77589901 -6.54480291 1.92532858 -4.640625 1.07421875 C-2 0 -2 0 0 0 Z " fill="#1EB9CD" transform="translate(1488,148)"/>
<path d="M0 0 C0 120.45 0 240.9 0 365 C-80.85 365 -161.7 365 -245 365 C-245 279.53 -245 194.06 -245 106 C-232.79 100.72 -220.58 95.44 -208 90 C-198.69889807 85.93127206 -198.69889807 85.93127206 -189.40551758 81.84521484 C-185.15838344 79.97323637 -180.9093316 78.10562088 -176.66015625 76.23828125 C-175.82521637 75.87135162 -174.99027649 75.504422 -174.1300354 75.12637329 C-166.76439457 71.89186883 -159.38482104 68.69045799 -152 65.5 C-140.14653572 60.37879941 -128.32033754 55.19715151 -116.5 50 C-104.67966216 44.80284835 -92.85344997 39.62123421 -81 34.5 C-69.90416217 29.70593925 -58.8305277 24.86279677 -47.76467896 19.99993896 C-45.09450675 18.82656497 -42.42411965 17.65368147 -39.75366211 16.48095703 C-30.3577608 12.35544442 -30.3577608 12.35544442 -20.96484375 8.22314453 C-17.6654627 6.77054487 -14.36430374 5.32208184 -11.0625 3.875 C-10.14025635 3.46741455 -9.2180127 3.0598291 -8.26782227 2.63989258 C-7.03890259 2.10271606 -7.03890259 2.10271606 -5.78515625 1.5546875 C-4.74693726 1.09811768 -4.74693726 1.09811768 -3.68774414 0.63232422 C-2 0 -2 0 0 0 Z " fill="#1EB9CD" transform="translate(1142,299)"/>
<path d="M0 0 C553.41 0 1106.82 0 1677 0 C1677 3.96 1677 7.92 1677 12 C1123.59 12 570.18 12 0 12 C0 8.04 0 4.08 0 0 Z " fill="#000000" transform="translate(0,940)"/>
<path d="M0 0 C16.55223584 15.46024806 25.69812356 39.2909886 26.68457031 61.68530273 C27.50821373 92.82745887 22.16399573 123.42168413 0.2734375 147.12109375 C-19.03835406 167.01724788 -43.70984585 177.51626162 -71.3515625 178.07836914 C-96.5334603 178.34253437 -120.47663576 172.09037481 -139.4375 154.9140625 C-140.66533203 153.82544922 -140.66533203 153.82544922 -141.91796875 152.71484375 C-159.34432083 136.36919567 -170.22632081 111.72796808 -171.61450195 87.87231445 C-172.18086498 58.11230656 -168.2709892 31.43559721 -148.4375 7.9140625 C-147.79296875 7.11226562 -147.1484375 6.31046875 -146.484375 5.484375 C-131.27061952 -12.60308985 -108.67837028 -22.1129679 -85.53515625 -24.76953125 C-53.88437797 -27.49309663 -24.50325809 -20.96913433 0 0 Z M-120.1171875 6.16015625 C-137.53865848 26.83715464 -139.22583278 56.83960206 -137.2265625 82.63574219 C-134.64523877 108.81075596 -124.50673528 133.03591205 -104.47265625 150.58984375 C-91.18720767 160.76338546 -74.04850713 165.50260037 -57.4375 163.9140625 C-43.69675476 161.85380206 -33.3476738 155.48705042 -24.4375 144.9140625 C-7.27326593 121.35088151 -5.44865143 87.71583654 -9.12109375 59.70703125 C-12.48850744 39.01513587 -20.50876252 20.92263281 -35.4375 5.9140625 C-36.02660156 5.29015625 -36.61570312 4.66625 -37.22265625 4.0234375 C-41.44669895 -0.09848549 -46.21690593 -2.74885857 -51.4375 -5.3984375 C-52.10209229 -5.73633301 -52.76668457 -6.07422852 -53.45141602 -6.42236328 C-75.97849574 -17.36052738 -103.11519315 -11.7212516 -120.1171875 6.16015625 Z " fill="#000000" transform="translate(1467.4375,721.0859375)"/>
<path d="M0 0 C4.89513822 1.41654183 7.61003818 4.41251098 10.875 8.125 C11.66934448 9.007323 11.66934448 9.007323 12.47973633 9.9074707 C13.99618339 11.59666874 15.50038049 13.29586296 17 15 C17.66644531 15.75410156 18.33289062 16.50820313 19.01953125 17.28515625 C20.11713801 18.53699347 21.21100108 19.79212474 22.30078125 21.05078125 C25.81404669 25.08094091 29.41683056 29.03206068 33 33 C41.57462432 42.49538934 41.57462432 42.49538934 45.3125 46.8125 C49.91446316 52.09466094 54.70595591 57.20339232 59.46679688 62.34179688 C61.81981434 64.8866527 64.1600917 67.44309604 66.5 70 C75.69727389 80.03921993 84.93355726 90.03581932 94.30541992 99.9128418 C98.08534723 103.91048375 101.76198443 107.97645163 105.36791992 112.1315918 C107.69829678 114.7994114 110.09611282 117.39814564 112.5 120 C116.09486877 123.9021642 119.63386611 127.84327592 123.10546875 131.85546875 C126.10271432 135.24822714 129.18424745 138.56420202 132.26953125 141.87695312 C134.39613589 144.17574025 136.25772382 146.38658573 138 149 C137.75970119 136.24567039 137.51641385 123.49140141 137.26950932 110.73719788 C137.15490066 104.81229193 137.04124855 98.88737112 136.92993164 92.96240234 C136.82208282 87.22403285 136.71152676 81.48572085 136.59924126 75.74743652 C136.55725882 73.57907892 136.51618515 71.41070348 136.4761219 69.24230957 C136.36374561 63.17809938 136.23510998 57.11468368 136.07820511 51.05145264 C136.02440202 48.95213246 135.97426322 46.85271619 135.92716599 44.75323486 C135.85065176 41.51328904 135.75473163 38.27443188 135.65405273 35.03515625 C135.63360177 34.06009628 135.61315081 33.08503632 135.59208012 32.08042908 C135.37931001 26.05047856 134.62730372 20.49910275 132 15 C128.30133813 11.65609433 123.99782331 11.31424664 119.1875 10.8125 C118.14819336 10.6897168 118.14819336 10.6897168 117.08789062 10.56445312 C115.39313016 10.36575707 113.69669806 10.18140797 112 10 C111.4375 8.0625 111.4375 8.0625 111 6 C112 5 112 5 114.54994202 4.87974548 C116.25204079 4.8830764 116.25204079 4.8830764 117.98852539 4.88647461 C119.26977798 4.88655014 120.55103058 4.88662567 121.87110901 4.88670349 C123.27995848 4.89181091 124.68880756 4.89702691 126.09765625 4.90234375 C127.53112234 4.90420798 128.96458907 4.90563186 130.39805603 4.90663147 C134.17759957 4.91045628 137.9571049 4.92028623 141.7366333 4.93133545 C145.59069298 4.94155037 149.44475882 4.94612926 153.29882812 4.95117188 C160.86590287 4.96190854 168.43294609 4.97898451 176 5 C176.5625 6.9375 176.5625 6.9375 177 9 C174.78664167 11.21335833 169.98463103 10.83745708 166.98046875 11.20703125 C163.44180173 12.14851147 162.19570491 13.09377485 160 16 C154.47004284 30.22288223 156.71575078 48.71448981 156.5 63.7109375 C156.45936862 66.32655426 156.41834496 68.94216494 156.37695312 71.55776978 C156.27965427 77.73805301 156.18590987 83.91838401 156.09375763 90.09874594 C155.76869198 111.89577196 155.4299145 133.69257315 155.05926514 155.48887634 C155.00192154 158.88615961 154.9464319 162.28346939 154.89111328 165.68078613 C154.80913053 170.63862719 154.7168626 175.59616209 154.61523438 180.55363846 C154.58047493 182.31547492 154.54898478 184.07737936 154.52099609 185.8393364 C154.48273601 188.20649515 154.43255724 190.573089 154.37890625 192.93994141 C154.34132202 194.89500107 154.34132202 194.89500107 154.30297852 196.88955688 C154 200 154 200 152 203 C149.05171586 203.46399226 147.55059213 203.34546957 145.0078125 201.75 C141.09555736 198.11371306 137.49739603 194.37651137 134.046875 190.30078125 C131.47802007 187.41327065 128.75072935 184.71309447 126 182 C122.05735212 178.10638551 118.30013942 174.14833902 114.70703125 169.92578125 C112.01143674 166.88475587 109.08728948 164.07932623 106.1953125 161.2265625 C103.55993257 158.55366826 101.12233511 155.74631697 98.6796875 152.8984375 C97.01795424 151.02029247 95.28874475 149.25694484 93.5 147.5 C91.08667283 145.12957643 88.82728147 142.69263692 86.625 140.125 C84.03365795 137.1153247 81.32745217 134.28911384 78.5 131.5 C75.04951094 128.09629724 71.83362606 124.57561011 68.6796875 120.8984375 C67.01795424 119.02029247 65.28874475 117.25694484 63.5 115.5 C60.50765625 112.55399785 57.74675828 109.47016993 55.0078125 106.2890625 C53.05652417 104.06444196 51.05846735 101.88863971 49.04589844 99.71948242 C44.25952059 94.5589118 39.72990714 89.27242479 35.31640625 83.78515625 C32.34764078 80.2156288 29.20275483 76.83318326 26.03979492 73.43652344 C21.76881769 68.81916881 17.85886773 63.96166734 14 59 C13.94871677 71.65445527 14.08368535 84.29113358 14.40234375 96.94140625 C14.44491077 98.68716642 14.48735273 100.43292964 14.52967834 102.17869568 C14.61809785 105.80300834 14.70821314 109.42727367 14.79956055 113.05151367 C14.91509285 117.64186132 15.02599156 122.23230738 15.13556576 126.82280064 C15.22194244 130.41701772 15.31098455 134.01116531 15.40075874 137.605299 C15.44264907 139.29575487 15.48372338 140.98623121 15.5238781 142.6767292 C15.73259304 151.40675966 16.01504985 160.12701462 16.48266602 168.84741211 C16.52144584 169.58949449 16.56022566 170.33157686 16.60018063 171.09614658 C17.04763748 178.94701015 17.70111045 185.82214772 23 192 C25.85816417 193.13439413 28.70835336 193.51181831 31.75 193.875 C32.54277344 193.99101563 33.33554688 194.10703125 34.15234375 194.2265625 C36.09830538 194.50790635 38.04885784 194.75717226 40 195 C40.5625 196.9375 40.5625 196.9375 41 199 C40 200 40 200 37.37413025 200.12025452 C36.20386795 200.11803391 35.03360565 200.11581329 33.82788086 200.11352539 C32.86205833 200.11374443 32.86205833 200.11374443 31.87672424 200.1139679 C29.73939697 200.11326885 27.60215587 200.10547691 25.46484375 200.09765625 C23.98653715 200.09579204 22.50822993 200.09436815 21.02992249 200.09336853 C17.13201198 200.08954359 13.23413851 200.07971352 9.33624268 200.06866455 C5.36153667 200.05844992 1.38682471 200.0538708 -2.58789062 200.04882812 C-10.391944 200.03809122 -18.19596682 200.02101509 -26 200 C-26.33 198.35 -26.66 196.7 -27 195 C-26.03578125 194.86722656 -25.0715625 194.73445312 -24.078125 194.59765625 C-22.18320312 194.33275391 -22.18320312 194.33275391 -20.25 194.0625 C-18.99703125 193.88847656 -17.7440625 193.71445312 -16.453125 193.53515625 C-13.90017407 193.13950662 -11.4813709 192.69553578 -9 192 C-8.690625 191.01 -8.38125 190.02 -8.0625 189 C-7.88847656 188.443125 -7.71445313 187.88625 -7.53515625 187.3125 C-6.07907411 181.0205246 -5.82921229 174.65584647 -5.71435547 168.22705078 C-5.69597248 167.37380596 -5.67758949 166.52056114 -5.65864944 165.64146042 C-5.59867744 162.78448297 -5.54524647 159.92742616 -5.4921875 157.0703125 C-5.45085938 155.00261225 -5.40942351 152.93491414 -5.3678894 150.86721802 C-5.05211183 134.69750945 -4.83252684 118.5265294 -4.62375641 102.35515594 C-4.57044328 98.23481893 -4.51525507 94.11450838 -4.45965576 89.99420166 C-4.45044704 89.31005558 -4.44123831 88.6259095 -4.43175054 87.92103171 C-4.39439902 85.14607454 -4.35703347 82.37111759 -4.31939936 79.59616423 C-4.21372114 71.79791089 -4.1133998 63.99965177 -4.02587891 56.20117188 C-3.95470475 49.86329457 -3.87324253 43.52564348 -3.77966106 37.18805611 C-3.73109635 33.87258326 -3.68925968 30.55725066 -3.65701675 27.24157333 C-3.62089084 23.59284878 -3.56676497 19.94481184 -3.50830078 16.29638672 C-3.50195618 15.21935989 -3.49561157 14.14233307 -3.48907471 13.03266907 C-3.31214788 4.04698745 -3.31214788 4.04698745 0 0 Z " fill="#000000" transform="translate(1046,695)"/>
<path d="M0 0 C9.2054444 7.54544623 14.30894771 15.55738384 15.6875 27.5 C16.34328203 41.43536804 11.86574814 53.37901284 3 64 C-3.06212062 70.47939852 -10.50432199 75.04039238 -18.25 79.25 C-17.49976563 79.6625 -16.74953125 80.075 -15.9765625 80.5 C0.71887444 89.9200954 16.00518221 102.13305803 22.125 120.875 C26.12131311 136.25829732 23.96954971 151.33529499 16.54296875 165.36328125 C7.47028959 179.97049235 -6.28107393 188.60507386 -22.71875 192.69140625 C-42.64675336 197.08909835 -64.45800235 194.23102098 -81.9375 183.5625 C-92.42382531 176.10217419 -98.97660963 166.26272029 -101.5625 153.6875 C-103.70858115 139.07763984 -101.26540571 124.82318543 -93.25 112.25 C-90.47861167 108.6591993 -87.47684834 105.4336798 -84.25 102.25 C-83.21746094 101.20199219 -83.21746094 101.20199219 -82.1640625 100.1328125 C-77.05862996 95.2551316 -66.73547332 86.25 -59.25 86.25 C-59.25 85.59 -59.25 84.93 -59.25 84.25 C-59.97832031 83.981875 -60.70664062 83.71375 -61.45703125 83.4375 C-75.86558005 77.31134778 -85.44563057 65.34378999 -91.25 51.25 C-94.36708184 42.26547 -93.02154182 29.68536487 -89.63671875 21.02734375 C-83.44737252 8.63121652 -73.99899481 0.43344781 -61.25 -4.75 C-42.43975568 -10.9768395 -16.92581811 -11.97827128 0 0 Z M-60.4375 13.9375 C-65.93188123 21.76807482 -67.31728789 29.78092254 -66.25 39.25 C-63.47959599 51.71681804 -53.12059831 60.0380951 -43.25 67.25 C-42.51265625 67.80300781 -41.7753125 68.35601563 -41.015625 68.92578125 C-37.22622556 71.65385984 -37.22622556 71.65385984 -32.75 72 C-22.24415545 64.64590882 -14.02975496 55.62421292 -11.56640625 42.73046875 C-10.29177171 32.73796344 -11.1960551 23.92161195 -16 15 C-22.02397478 7.63736416 -28.14872678 3.91559344 -37.6875 2.875 C-46.83124253 3.83749921 -54.52814007 6.65555035 -60.4375 13.9375 Z M-58.4453125 102.29296875 C-70.20660303 114.58467042 -73.91821519 129.05401589 -73.55859375 145.5390625 C-73.06026363 155.89853931 -69.28440513 163.7376735 -62.25 171.25 C-61.71503906 171.82621094 -61.18007813 172.40242188 -60.62890625 172.99609375 C-54.81893871 178.58313688 -47.20378462 181.39760291 -39.1875 181.6875 C-29.22134413 181.19787903 -21.35702568 177.7471457 -14.5625 170.43359375 C-6.40725629 160.34147966 -4.45086321 148.91779794 -5.25 136.25 C-7.50446292 122.95248987 -16.02743192 112.20105143 -26.7421875 104.44628906 C-43.00983248 91.70625639 -43.00983248 91.70625639 -58.4453125 102.29296875 Z " fill="#000000" transform="translate(417.25,704.75)"/>
<path d="M0 0 C0.69771011 0.00359528 1.39542023 0.00719055 2.11427307 0.01089478 C3.2117688 0.01067574 3.2117688 0.01067574 4.33143616 0.01045227 C6.76094989 0.0111515 9.19038789 0.01894432 11.61988831 0.02676392 C13.29997719 0.02862806 14.98006662 0.03005198 16.66015625 0.03105164 C21.09071849 0.03487709 25.52124815 0.04470761 29.95179749 0.05575562 C34.46941182 0.06596914 38.98703139 0.07054913 43.50465393 0.07559204 C52.37511098 0.08632986 61.24554381 0.10340661 70.11598206 0.12442017 C70.61098206 2.10442017 70.61098206 2.10442017 71.11598206 4.12442017 C70.12598206 4.41317017 69.13598206 4.70192017 68.11598206 4.99942017 C67.16465393 5.27785767 67.16465393 5.27785767 66.19410706 5.56192017 C64.79909104 5.93951849 63.39130315 6.27252972 61.97535706 6.56192017 C58.74507947 7.23190366 56.54792895 7.69247327 54.17848206 10.06192017 C48.45343035 21.17525583 50.95300535 38.91339439 50.94801331 51.19863892 C50.94478719 53.09844486 50.94142219 54.99825057 50.93792725 56.89805603 C50.93198516 60.85722427 50.93008224 64.81637084 50.93067932 68.77554321 C50.93078069 73.78619756 50.9171318 78.79670942 50.89990711 83.80733013 C50.8886522 87.7258922 50.88676419 91.64442126 50.88728905 95.56299782 C50.88612899 97.40730085 50.88182224 99.25160533 50.87395668 101.09589195 C50.83598896 110.91590991 51.10498596 120.6267763 52.0171051 130.40884399 C52.0962531 131.26185184 52.1754011 132.11485968 52.25694752 132.99371624 C53.85323554 148.57826391 58.27223821 163.29703963 70.11598206 174.12442017 C81.00684559 182.28811165 92.76285558 184.5230678 106.11598206 183.12442017 C116.4418785 181.20544826 126.77107639 176.71873051 133.49098206 168.37442017 C146.48682678 148.78702307 145.27612256 124.97687256 145.28395081 102.43692017 C145.28717108 100.24461852 145.29053571 98.05231708 145.29403687 95.86001587 C145.29999493 91.28440859 145.30188007 86.70882011 145.30128479 82.13320923 C145.30118306 76.29999368 145.31486126 70.46689955 145.332057 64.63371277 C145.34322665 60.11241105 145.34520252 55.59113831 145.34467506 51.06982422 C145.3458467 48.92026347 145.35022199 46.77070176 145.35800743 44.62115479 C146.64694514 26.27323777 146.64694514 26.27323777 141.15893555 9.83676147 C139.04288566 8.063153 137.90934464 7.51044639 135.22535706 7.07754517 C134.51637268 6.95508423 133.80738831 6.83262329 133.07691956 6.70645142 C131.98250549 6.54209595 131.98250549 6.54209595 130.86598206 6.37442017 C130.12090393 6.2493811 129.37582581 6.12434204 128.60816956 5.99551392 C126.77977703 5.69078183 124.94813901 5.40563495 123.11598206 5.12442017 C122.55348206 3.18692017 122.55348206 3.18692017 122.11598206 1.12442017 C123.11598206 0.12442017 123.11598206 0.12442017 125.70388794 0.00416565 C126.85638535 0.00638626 128.00888275 0.00860687 129.19630432 0.01089478 C131.14821434 0.01100807 131.14821434 0.01100807 133.13955688 0.01112366 C134.57050107 0.01623108 136.00144488 0.02144709 137.43238831 0.02676392 C138.88827465 0.02862814 140.34416163 0.03005202 141.80004883 0.03105164 C145.63877585 0.03487651 149.47746525 0.04470653 153.31617737 0.05575562 C157.23056021 0.06597039 161.14494911 0.0705494 165.05934143 0.07559204 C172.74490549 0.08632883 180.43043851 0.10340488 188.11598206 0.12442017 C188.44598206 1.44442017 188.77598206 2.76442017 189.11598206 4.12442017 C185.37696457 5.21496693 181.66946012 6.2237463 177.86598206 7.06192017 C173.65698662 8.07993252 173.65698662 8.07993252 171.11598206 11.12442017 C169.31408982 17.13821722 168.82177699 22.54833699 168.82887268 28.8031311 C168.82203964 29.73777695 168.8152066 30.67242279 168.8081665 31.63539124 C168.79463683 33.6546872 168.78554624 35.67401686 168.78045654 37.69335175 C168.77210194 40.90887526 168.75153024 44.12412355 168.72792053 47.33956909 C168.67983022 54.1844779 168.64689071 61.02941511 168.61598206 67.87442017 C168.58006997 75.77382122 168.53764178 83.67308974 168.4800415 91.57236481 C168.46030852 94.70478752 168.45171855 97.83710281 168.44374084 100.96957397 C168.39485094 110.34406302 168.14029461 119.63492118 167.22731018 128.96914673 C167.15120262 129.7511784 167.07509506 130.53321007 166.99668121 131.33893967 C164.84770424 151.04815212 158.19016438 170.21242874 142.58863831 183.23379517 C122.97117481 198.20723933 100.73494116 201.41401364 76.74098206 198.37442017 C58.74270384 195.33982675 43.48833166 188.02693769 32.49098206 173.18692017 C17.46907469 151.20847326 18.00107107 123.60608504 17.91675186 98.04763794 C17.90479436 94.74277129 17.88530925 91.43802572 17.8636322 88.13320923 C17.8025222 78.74897264 17.74782511 69.36475786 17.71461487 59.9803772 C17.69366515 54.21174886 17.65838457 48.44335816 17.61385727 42.67486572 C17.59972833 40.48688548 17.59098187 38.2988634 17.58780289 36.11083984 C17.58289017 33.05782075 17.55973036 30.00543525 17.53248596 26.95254517 C17.5354921 26.05685318 17.53849823 25.16116119 17.54159546 24.23832703 C17.46946876 18.79110775 16.70775842 14.94725089 14.11598206 10.12442017 C10.35021187 6.97858413 6.59648421 6.51924753 1.80348206 5.93692017 C0.54922424 5.77836548 -0.70503357 5.61981079 -1.99729919 5.45645142 C-2.94991638 5.3468811 -3.90253357 5.23731079 -4.88401794 5.12442017 C-5.44651794 3.18692017 -5.44651794 3.18692017 -5.88401794 1.12442017 C-4.22236587 -0.53723191 -2.21885765 0.00482291 0 0 Z " fill="#000000" transform="translate(2097.884017944336,699.8755798339844)"/>
<path d="M0 0 C20.93071486 19.91688336 26.16038677 51.17350376 26.94140625 78.82421875 C27.56377351 112.55114599 23.21625717 150.15013322 -0.9765625 175.6640625 C-11.35969109 185.75367509 -23.75415606 190.74913238 -38.1875 191.0625 C-50.91123324 190.75492884 -64.13145653 186.65660333 -73.55078125 177.640625 C-96.53472081 151.96882616 -101.41020027 116.30031225 -99.9375 82.98046875 C-98.29896936 54.31022831 -93.21855652 23.11713124 -72.1875 1.8125 C-52.07655005 -16.08778064 -20.77239769 -17.73787574 0 0 Z M-56.3046875 10.265625 C-61.58821994 17.41264399 -63.76636451 25.35968527 -65.875 33.875 C-66.07762451 34.68227539 -66.28024902 35.48955078 -66.48901367 36.32128906 C-70.07973567 51.82266212 -70.56405872 67.59430261 -70.5 83.4375 C-70.49850952 84.3539328 -70.49701904 85.2703656 -70.4954834 86.21456909 C-70.45358419 100.58302793 -69.86548069 114.65950065 -67.1875 128.8125 C-66.9706958 129.99005859 -66.9706958 129.99005859 -66.74951172 131.19140625 C-63.83602565 146.44607085 -59.14374414 163.54511795 -46.76953125 173.8203125 C-41.34389586 177.43740276 -36.66874296 179.01598032 -30.1875 177.8125 C-22.71163266 175.52396918 -18.06796232 169.06445654 -14.296875 162.54296875 C-5.67333633 145.37687447 -3.08973531 124.49043828 -2.984375 105.45703125 C-2.97736069 104.60079163 -2.97034637 103.744552 -2.96311951 102.86236572 C-2.94572994 100.1165229 -2.93926801 97.37089585 -2.9375 94.625 C-2.93682526 93.68631073 -2.93615051 92.74762146 -2.93545532 91.78048706 C-2.96621696 64.8485301 -4.06622356 28.4331817 -24.171875 7.7734375 C-29.85740928 2.57950956 -34.21842628 0.32156522 -41.9921875 0.578125 C-48.53294929 1.27642697 -52.27653889 5.45635252 -56.3046875 10.265625 Z " fill="#000000" transform="translate(608.1875,708.1875)"/>
<path d="M0 0 C19.7912156 16.28906633 27.18746814 42.22760862 29.81674194 66.88647461 C30.39838892 73.59464167 30.34405812 80.33465451 30.3125 87.0625 C30.31067719 87.87193054 30.30885437 88.68136108 30.30697632 89.51531982 C30.2577964 102.52477 29.67174935 115.22773483 27 128 C26.82839355 128.82048828 26.65678711 129.64097656 26.47998047 130.48632812 C23.12347875 145.83204999 17.96299287 160.63810863 8 173 C7.09314453 174.16789062 7.09314453 174.16789062 6.16796875 175.359375 C-2.0526098 185.33791841 -12.90457658 191.01554398 -25.4375 193.75 C-41.39905294 194.87010898 -55.51807815 192.55355058 -68.0625 182 C-88.05361758 163.01314579 -95.0416005 133.62315194 -96.12573242 106.90087891 C-96.94267012 72.89874644 -94.45265361 32.38894547 -69.6875 6.1875 C-51.18105652 -11.34821632 -21.21036897 -15.02272867 0 0 Z M-53.25 14.0625 C-74.62354269 49.72443311 -69.87584967 105.51786071 -60.71191406 144.21923828 C-57.25328126 157.72878137 -51.8470354 170.77608708 -40 179 C-35.63468947 181.52728504 -30.92086525 181.78174281 -26 181 C-17.76895054 177.78240794 -13.24307339 170.81046532 -9.4375 163.1875 C7.38356002 123.59580889 6.23324458 68.13132627 -9.4375 28.375 C-13.95851239 18.4203485 -18.83570451 10.33628411 -28.375 4.5625 C-39.13519563 2.25674379 -46.72293176 5.03782912 -53.25 14.0625 Z " fill="#000000" transform="translate(793,705)"/>
<path d="M0 0 C289.74 0 579.48 0 878 0 C878 3.96 878 7.92 878 12 C588.26 12 298.52 12 0 12 C0 8.04 0 4.08 0 0 Z " fill="#000000" transform="translate(0,655)"/>
<path d="M0 0 C4.50323915 0.48683666 4.50323915 0.48683666 6.44921875 2.49707031 C8.66625609 6.0753239 10.0345931 9.86085327 11.5 13.796875 C11.84383728 14.70465195 12.18767456 15.61242889 12.54193115 16.54771423 C13.70091676 19.6128066 14.8504045 22.68137461 16 25.75 C16.82793378 27.94526332 17.65639923 30.14032618 18.48535156 32.33520508 C21.07232073 39.1927769 23.64742802 46.05476703 26.21963501 52.91788483 C27.02021465 55.05393532 27.82099791 57.1899094 28.62182617 59.3258667 C31.49179216 66.98085124 34.36076081 74.63620928 37.22924805 82.29174805 C49.43988981 114.95579292 49.43988981 114.95579292 61.7845459 147.56924438 C62.36908975 149.10237798 62.95150594 150.6363252 63.53137207 152.17123413 C66.4760059 159.95840509 69.63401581 167.60775662 73.1328125 175.1640625 C73.4549321 175.86768417 73.7770517 176.57130585 74.1089325 177.29624939 C77.09628982 183.6172156 80.86776399 189.94086212 87.3125 193.15234375 C90.46699004 194.14729192 93.5382011 194.66196783 96.8125 195.125 C98.55466797 195.37636719 98.55466797 195.37636719 100.33203125 195.6328125 C101.21246094 195.75398437 102.09289063 195.87515625 103 196 C102.67 197.65 102.34 199.3 102 201 C94.2460781 201.0463608 86.49218874 201.08188821 78.73816299 201.10362434 C75.13756664 201.11405713 71.53706518 201.12820701 67.93652344 201.15087891 C64.46114927 201.17262545 60.98586634 201.18457243 57.51042938 201.18975449 C55.54063404 201.19524282 53.57087535 201.21085291 51.60113525 201.22659302 C50.40019226 201.22674408 49.19924927 201.22689514 47.96191406 201.22705078 C46.3763974 201.23371262 46.3763974 201.23371262 44.7588501 201.24050903 C41.99290389 200.99938138 40.35372102 200.42580074 38 199 C38 198.01 38 197.02 38 196 C40.475 195.01 40.475 195.01 43 194 C42.3987756 187.35717498 40.23966638 181.44948956 38 175.1953125 C37.60425781 174.07559052 37.20851563 172.95586853 36.80078125 171.80221558 C35.96662875 169.44615004 35.12932453 167.09119826 34.2890625 164.73730469 C32.99789081 161.11908949 31.7169132 157.49738767 30.4375 153.875 C29.62559246 151.58572729 28.81311261 149.29665746 28 147.0078125 C27.61457031 145.91937042 27.22914062 144.83092834 26.83203125 143.70950317 C26.47496094 142.7111142 26.11789062 141.71272522 25.75 140.68408203 C25.43546875 139.80140656 25.1209375 138.91873108 24.796875 138.00930786 C24.16784841 136.03564131 24.16784841 136.03564131 23 135 C21.28134591 134.9064081 19.55884256 134.88255389 17.83764648 134.88647461 C16.18604774 134.88658791 16.18604774 134.88658791 14.50108337 134.88670349 C13.3031868 134.89186478 12.10529022 134.89702606 10.87109375 134.90234375 C9.65172623 134.9037587 8.4323587 134.90517365 7.17604065 134.90663147 C3.2631693 134.91225033 -0.64964581 134.92480604 -4.5625 134.9375 C-7.20768147 134.94251257 -9.85286383 134.9470759 -12.49804688 134.95117188 C-18.99871726 134.96222589 -25.49935461 134.97898236 -32 135 C-34.10665232 140.81413099 -36.20599898 146.63083013 -38.29882812 152.44995117 C-39.01072747 154.42624707 -39.72456447 156.40184617 -40.44042969 158.37670898 C-41.47329562 161.22716002 -42.49900195 164.08010368 -43.5234375 166.93359375 C-43.84122162 167.80584091 -44.15900574 168.67808807 -44.48641968 169.57676697 C-47.49829012 178.00742737 -49.62223641 185.07769972 -48 194 C-43.05 194.66 -38.1 195.32 -33 196 C-33.33 197.65 -33.66 199.3 -34 201 C-54.46 201 -74.92 201 -96 201 C-96.33 199.68 -96.66 198.36 -97 197 C-93.50111534 195.46884252 -90.33781684 194.64979582 -86.5625 194.125 C-80.94628686 193.1161896 -77.05749981 191.89944387 -73.61222839 187.04434204 C-69.37253945 180.14804834 -66.46463844 173.04397595 -63.67578125 165.4609375 C-63.17627353 164.12515804 -62.67587046 162.78971311 -62.1746521 161.45457458 C-61.10327007 158.59493429 -60.03809598 155.73308996 -58.97787476 152.86929321 C-57.28700828 148.3020498 -55.58251272 143.73996564 -53.8762207 139.1784668 C-51.47103302 132.74482948 -49.07192631 126.3089556 -46.67675781 119.87158203 C-41.56930826 106.14710268 -36.42427208 92.43671826 -31.28015041 78.72595215 C-29.32568613 73.51608721 -27.37459517 68.30496867 -25.42504883 63.09326172 C-22.83025463 56.15786737 -20.22708648 49.22566039 -17.61712646 42.29595947 C-16.48730337 39.29611201 -15.3601699 36.29526858 -14.23443604 33.29388428 C-12.74825809 29.33325837 -11.25497752 25.37537183 -9.75699806 21.41919518 C-9.18751436 19.91208429 -8.62024765 18.40413359 -8.05533409 16.89530373 C-7.27320391 14.80764253 -6.48295643 12.72322988 -5.69067383 10.6394043 C-5.01842522 8.85701607 -5.01842522 8.85701607 -4.33259583 7.03862 C-3.13787056 4.31437608 -1.90357713 2.2654799 0 0 Z M-5 55 C-5.30281136 55.87418076 -5.30281136 55.87418076 -5.61174011 56.76602173 C-7.73653582 62.89963025 -9.86227232 69.03291216 -11.98852539 75.16601562 C-12.7791253 77.44685855 -13.56949514 79.72778123 -14.35961914 82.00878906 C-15.50344509 85.31076354 -16.64803137 88.61247325 -17.79296875 91.9140625 C-18.34596146 93.50979095 -18.34596146 93.50979095 -18.91012573 95.13775635 C-21.28933559 101.99092611 -23.71543874 108.82448623 -26.21606445 115.63427734 C-27.10485071 117.90104212 -27.10485071 117.90104212 -27 120 C-11.82 120 3.36 120 19 120 C11.79045859 98.28754389 4.51857595 76.60707531 -3 55 C-3.66 55 -4.32 55 -5 55 Z " fill="#000000" transform="translate(1952,694)"/>
<path d="M0 0 C282.48 0 564.96 0 856 0 C856 3.96 856 7.92 856 12 C573.52 12 291.04 12 0 12 C0 8.04 0 4.08 0 0 Z " fill="#000000" transform="translate(1844,655)"/>
<path d="M0 0 C3.41939422 0.52606065 6.76154894 1.17964317 10.11936951 2.0005188 C14.97079052 3.08299801 19.69457762 3.4374652 24.65258789 3.61669922 C25.55896279 3.65429792 26.4653377 3.69189663 27.3991785 3.73063469 C37.78385175 4.12554542 48.16788203 4.1449265 58.55859375 4.1328125 C60.64738476 4.1334889 62.73617569 4.13446171 64.82496643 4.13571167 C69.16025558 4.13717055 73.49552386 4.13509167 77.83081055 4.13037109 C83.34978344 4.12464973 88.86870794 4.12797956 94.3876791 4.13394356 C98.68510801 4.13757711 102.98252564 4.13639823 107.27995491 4.13381577 C109.31425037 4.13315551 111.3485469 4.13394284 113.38284111 4.13629532 C124.30731687 4.14617044 135.11373535 4.00132438 146 3 C147.12067368 2.90155792 148.24134735 2.80311584 149.39598083 2.70169067 C151.93161424 2.47682112 154.46605515 2.24305185 157 2 C157.02467759 7.37515933 157.04284928 12.75028585 157.05493164 18.12548828 C157.05996737 19.95492121 157.06679627 21.78435009 157.07543945 23.61376953 C157.08753824 26.23991898 157.09323583 28.86601532 157.09765625 31.4921875 C157.10281754 32.31306854 157.10797882 33.13394958 157.11329651 33.97970581 C157.11387171 39.77225659 157.11387171 39.77225659 156 42 C154.35 41.67 152.7 41.34 151 41 C150.91363281 40.26394531 150.82726563 39.52789063 150.73828125 38.76953125 C150.07869604 34.18874219 149.58206872 30.82174407 146.875 27 C139.12896017 21.61145055 130.5107439 20.92044724 121.3203125 20.46484375 C120.10116653 20.40037804 120.10116653 20.40037804 118.85739136 20.33460999 C116.28008211 20.19905595 113.70255913 20.06820738 111.125 19.9375 C109.36977541 19.84601459 107.61456685 19.75422095 105.859375 19.66210938 C101.57309402 19.43783895 97.28661514 19.21778617 93 19 C93.08404841 39.00230791 93.17923602 59.00453361 93.28752708 79.00672531 C93.33755633 88.29499429 93.38400003 97.58325488 93.421875 106.87158203 C93.45491274 114.97137847 93.49480824 123.07110782 93.54279006 131.17083001 C93.56793842 135.45584053 93.58975351 139.74080722 93.60334396 144.02587128 C93.61627098 148.06748729 93.63843745 152.10895206 93.66738319 156.15048409 C93.67637653 157.62575446 93.68212966 159.10104913 93.68421364 160.57634544 C93.29166995 175.8371367 93.29166995 175.8371367 98 190 C102.13352418 192.31600056 106.67878043 192.61980448 111.3125 193.125 C112.42334961 193.25455078 112.42334961 193.25455078 113.55664062 193.38671875 C115.37038435 193.59734705 117.18510543 193.79952986 119 194 C119.33 194.99 119.66 195.98 120 197 C117.55866763 199.44133237 116.25891189 199.23458132 112.92810059 199.24884033 C111.87290222 199.2380545 111.87290222 199.2380545 110.79638672 199.22705078 C110.0548233 199.22734283 109.31325989 199.22763489 108.54922485 199.22793579 C106.09259429 199.22653994 103.63626522 199.21096698 101.1796875 199.1953125 C99.47860886 199.19158327 97.77752808 199.18873587 96.07644653 199.18673706 C91.59489024 199.17909349 87.11346317 199.15943884 82.63195801 199.1373291 C78.06064604 199.11688622 73.48931323 199.10773868 68.91796875 199.09765625 C59.94525566 199.07619359 50.97263857 199.04204896 42 199 C41.505 196.525 41.505 196.525 41 194 C42.57201172 193.79697266 42.57201172 193.79697266 44.17578125 193.58984375 C45.55494823 193.37405572 46.93384186 193.15651548 48.3125 192.9375 C49.00279297 192.85306641 49.69308594 192.76863281 50.40429688 192.68164062 C52.73310611 192.35372123 52.73310611 192.35372123 56 191 C61.4473534 182.13556952 60.16573924 170.72661549 60.20532227 160.6796875 C60.21491387 159.13172654 60.22492468 157.58376814 60.23532104 156.03581238 C60.26223733 151.85255162 60.28331833 147.66927974 60.30332303 143.48598099 C60.32526498 139.10708871 60.35261332 134.72823021 60.37937927 130.34936523 C60.42919557 122.06585544 60.47417522 113.78232677 60.51740164 105.49878025 C60.56686885 96.06465276 60.62175166 86.63055918 60.67708123 77.19646454 C60.79073134 57.79767455 60.89760701 38.39885251 61 19 C60.24910064 19.07017365 59.49820127 19.14034731 58.72454739 19.21264744 C57.73718122 19.30389361 56.74981504 19.39513979 55.73252869 19.489151 C54.75475432 19.57994966 53.77697996 19.67074831 52.76957607 19.76429844 C49.51318725 20.04142964 46.27102406 20.17377252 43.00390625 20.24609375 C41.78509766 20.27896484 40.56628906 20.31183594 39.31054688 20.34570312 C36.81584557 20.40680316 34.32104836 20.46410717 31.82617188 20.51757812 C18.21055547 20.65062684 18.21055547 20.65062684 5.5625 24.9375 C2.50808171 28.58790234 0.94414131 32.24036276 -0.7265625 36.671875 C-2 39 -2 39 -4.0859375 39.890625 C-5.03339844 39.94476562 -5.03339844 39.94476562 -6 40 C-7 39 -7 39 -7.2109375 35.796875 C-7.12969098 29.51567888 -5.79845934 23.40077281 -4.625 17.25 C-4.40328125 16.03183594 -4.1815625 14.81367187 -3.953125 13.55859375 C-2.110554 3.72793553 -2.110554 3.72793553 0 0 Z " fill="#000000" transform="translate(2530,696)"/>
<path d="M0 0 C-0.13277344 1.02996094 -0.26554687 2.05992187 -0.40234375 3.12109375 C-1.45848452 11.56721953 -2.29294297 19.95289107 -2.57006836 28.46459961 C-2.72522094 32.10782841 -3.01694959 34.88948947 -5 38 C-6.98 37.505 -6.98 37.505 -9 37 C-9.09796875 36.19175781 -9.1959375 35.38351562 -9.296875 34.55078125 C-10.23969192 26.38919433 -10.23969192 26.38919433 -15 20 C-21.21846361 16.72712442 -28.25173301 16.82300249 -35.1171875 16.68359375 C-35.87781494 16.66494263 -36.63844238 16.6462915 -37.42211914 16.6270752 C-40.23963786 16.55922887 -43.05733111 16.49879352 -45.875 16.4375 C-55.341875 16.2209375 -55.341875 16.2209375 -65 16 C-65 38.77 -65 61.54 -65 85 C-58.791875 84.87625 -52.58375 84.7525 -46.1875 84.625 C-44.25156982 84.59100098 -42.31563965 84.55700195 -40.32104492 84.52197266 C-25.1872518 85.0115109 -25.1872518 85.0115109 -12 79.375 C-11.34 78.59125 -10.68 77.8075 -10 77 C-9.01 77 -8.02 77 -7 77 C-6.8513568 84.7745898 -7.31151779 92.44041526 -7.9375 100.1875 C-8.02451172 101.32380859 -8.11152344 102.46011719 -8.20117188 103.63085938 C-8.63340973 109.12188098 -9.12627706 114.56087793 -10 120 C-11.65 119.67 -13.3 119.34 -15 119 C-15.08636719 118.27554688 -15.17273437 117.55109375 -15.26171875 116.8046875 C-16.19946688 110.35229209 -17.1141126 106.43138625 -22 102 C-26.38212221 99.6842158 -30.73300053 99.65742504 -35.58203125 99.5859375 C-36.39621017 99.56657135 -37.2103891 99.5472052 -38.04924011 99.5272522 C-40.63688852 99.46771248 -43.22458203 99.42117417 -45.8125 99.375 C-47.57228449 99.3367966 -49.33205074 99.2977435 -51.09179688 99.2578125 C-55.39438234 99.16203218 -59.6970553 99.07790715 -64 99 C-64.04665045 107.88505876 -64.08203346 116.77007438 -64.10362434 125.65522957 C-64.11399473 129.78240456 -64.1280282 133.90949484 -64.15087891 138.03662109 C-64.17285104 142.03074839 -64.18461911 146.02479498 -64.18975449 150.01897812 C-64.19340706 151.53135318 -64.20053731 153.04372458 -64.21146011 154.55606461 C-64.91497404 171.41744069 -64.91497404 171.41744069 -60 187 C-55.86647582 189.31600056 -51.32121957 189.61980448 -46.6875 190.125 C-45.57665039 190.25455078 -45.57665039 190.25455078 -44.44335938 190.38671875 C-42.62961565 190.59734705 -40.81489457 190.79952986 -39 191 C-39 192.32 -39 193.64 -39 195 C-40.67335996 196.67335996 -42.71387909 196.11962895 -44.94747925 196.12442017 C-45.6545401 196.12082489 -46.36160095 196.11722961 -47.09008789 196.11352539 C-47.83150528 196.11367142 -48.57292267 196.11381744 -49.33680725 196.1139679 C-51.79878621 196.11326865 -54.26069043 196.10547574 -56.72265625 196.09765625 C-58.42516539 196.09579211 -60.12767507 196.09436819 -61.83018494 196.09336853 C-66.31993073 196.08954302 -70.80964438 196.07971247 -75.29937744 196.06866455 C-79.87731491 196.05845113 -84.45525756 196.05387106 -89.03320312 196.04882812 C-98.02214957 196.03809022 -107.01107212 196.02101341 -116 196 C-116.33 194.35 -116.66 192.7 -117 191 C-116.18015625 190.86722656 -115.3603125 190.73445312 -114.515625 190.59765625 C-112.89914062 190.33275391 -112.89914062 190.33275391 -111.25 190.0625 C-110.18265625 189.88847656 -109.1153125 189.71445312 -108.015625 189.53515625 C-105.63376932 189.11246943 -103.33898839 188.60239984 -101 188 C-98.66377925 177.30035667 -97.56081817 167.14606564 -97.61181641 156.15795898 C-97.60773682 154.64973067 -97.60238727 153.14150535 -97.59588623 151.63328552 C-97.58238193 147.59249285 -97.58743731 143.5519337 -97.59702349 139.51113772 C-97.60469624 135.25970316 -97.59755475 131.00828666 -97.59286499 126.7568512 C-97.58743472 119.63172868 -97.59453246 112.50670002 -97.60888672 105.3815918 C-97.62526457 97.15727824 -97.61987667 88.93318726 -97.6034075 80.70887893 C-97.58978183 73.6188897 -97.58787656 66.5289673 -97.59572351 59.43896919 C-97.60038684 55.21635508 -97.60106075 50.99384561 -97.59111404 46.77123833 C-97.58242881 42.80901352 -97.58849441 38.84707586 -97.60579681 34.88488197 C-97.60975094 33.4348994 -97.60864605 31.98489251 -97.60200882 30.53491974 C-97.42716762 20.32473118 -97.42716762 20.32473118 -101 11 C-104.8130027 7.76944532 -108.98288851 7.31625852 -113.8125 6.8125 C-114.85180664 6.6897168 -114.85180664 6.6897168 -115.91210938 6.56445312 C-117.60686984 6.36575707 -119.30330194 6.18140797 -121 6 C-120.67 4.35 -120.34 2.7 -120 1 C-119.42278198 1.00222061 -118.84556396 1.00444122 -118.25085449 1.00672913 C-89.72411953 1.11090604 -61.21015566 1.05435864 -32.6875 0.5625 C-31.46015137 0.54285187 -30.23280273 0.52320374 -28.96826172 0.50296021 C-25.50345454 0.44628 -22.03885351 0.38271658 -18.57421875 0.31640625 C-17.54241989 0.29968872 -16.51062103 0.28297119 -15.44755554 0.26574707 C-14.03431755 0.23583679 -14.03431755 0.23583679 -12.5925293 0.20532227 C-11.77326462 0.18977798 -10.95399994 0.1742337 -10.10990906 0.15821838 C-1.88512451 -0.4585438 -1.88512451 -0.4585438 0 0 Z " fill="#000000" transform="translate(1818,699)"/>
<path d="M0 0 C0.70706085 0.00359528 1.4141217 0.00719055 2.14260864 0.01089478 C3.25473473 0.01067574 3.25473473 0.01067574 4.389328 0.01045227 C6.85130696 0.01115152 9.31321119 0.01894442 11.775177 0.02676392 C13.47768614 0.02862806 15.18019582 0.03005198 16.88270569 0.03105164 C21.37245148 0.03487714 25.86216513 0.0447077 30.35189819 0.05575562 C34.92983566 0.06596903 39.50777831 0.07054911 44.08572388 0.07559204 C53.07467032 0.08632994 62.06359287 0.10340675 71.05252075 0.12442017 C71.05252075 1.77442017 71.05252075 3.42442017 71.05252075 5.12442017 C70.02771606 5.22238892 69.00291138 5.32035767 67.947052 5.42129517 C66.58627673 5.57144968 65.22560461 5.72254104 63.86502075 5.87442017 C62.85471802 5.96723267 62.85471802 5.96723267 61.82400513 6.06192017 C57.11662882 6.61302764 54.37913062 7.74142708 51.05252075 11.12442017 C48.27621105 19.45334928 48.90370654 28.95111552 48.90725708 37.63809204 C48.90389847 38.83812866 48.90053986 40.03816528 48.89707947 41.27456665 C48.88926316 44.53542763 48.88590509 47.79625018 48.88526368 51.05711937 C48.88454759 53.10580587 48.88240272 55.1544859 48.87976646 57.20317078 C48.87054009 64.38330502 48.86642783 71.56342082 48.86721802 78.74356079 C48.86781682 85.38209753 48.85729689 92.02055249 48.84147435 98.65906858 C48.82828748 104.40136954 48.8230388 110.14364417 48.82367343 115.8859601 C48.82392533 119.29636299 48.82124841 122.70669321 48.81049538 126.11708069 C48.74630154 144.11076087 48.74630154 144.11076087 49.81692505 162.06387329 C49.87774419 162.80878777 49.93856333 163.55370224 50.00122547 164.32118988 C50.54194941 169.18821593 52.02283293 172.30416514 55.05252075 176.12442017 C63.8127761 181.78743042 78.00258379 180.46427311 88.05252075 180.12442017 C88.94584106 180.10766235 89.83916138 180.09090454 90.759552 180.07363892 C97.60037432 179.73877349 103.57979528 178.43926339 109.05252075 174.12442017 C113.36158036 168.29633955 115.23829615 161.05682312 117.05252075 154.12442017 C118.37252075 154.12442017 119.69252075 154.12442017 121.05252075 154.12442017 C122.58324048 157.18585961 122.00826435 160.28981403 121.80252075 163.62442017 C121.7565979 164.37038452 121.71067505 165.11634888 121.6633606 165.88491821 C121.2591687 171.61097007 120.57351356 177.26772934 119.67752075 182.93692017 C119.56376099 183.69488892 119.45000122 184.45285767 119.33279419 185.23379517 C118.65821984 189.21288442 118.04976018 192.30474231 115.05252075 195.12442017 C111.24513737 196.51148595 107.25216014 196.26808318 103.25564575 196.25723267 C102.48333618 196.25855194 101.71102661 196.25987122 100.91531372 196.26123047 C98.37767612 196.26315732 95.84014737 196.25676496 93.30252075 196.24942017 C92.42640137 196.24853394 91.55028198 196.24764771 90.64761353 196.24673462 C77.9332945 196.23171065 65.2533665 195.96255029 52.54763794 195.48257446 C34.05801816 194.83783087 15.55045827 195.03907335 -2.94747925 195.12442017 C-3.27747925 193.80442017 -3.60747925 192.48442017 -3.94747925 191.12442017 C-1.19881027 190.13771848 1.45971837 189.21918789 4.34939575 188.75723267 C5.138302 188.63090454 5.92720825 188.50457642 6.74002075 188.37442017 C7.48638794 188.27645142 8.23275513 188.17848267 9.0017395 188.07754517 C12.1788891 186.60092707 12.69712985 184.28323953 14.05252075 181.12442017 C17.54208355 165.84418143 16.34790076 149.41123246 16.32117176 133.8212471 C16.31604439 129.88706447 16.32082091 125.95289035 16.32394409 122.01870728 C16.32756095 115.42583512 16.32284145 108.8330081 16.31326294 102.24014282 C16.30234652 94.63902445 16.3059362 87.03801313 16.31691575 79.43689728 C16.32601083 72.87510009 16.32726415 66.31333497 16.32203841 59.75153351 C16.31893554 55.84747054 16.31846348 51.94345784 16.32511139 48.03939819 C16.33091802 44.37515077 16.32682779 40.71104092 16.31532288 37.04680824 C16.31144988 35.07464915 16.31733092 33.10247832 16.32357788 31.13032532 C16.44481086 19.89806864 16.44481086 19.89806864 12.41189575 9.67129517 C9.22203021 7.57992637 6.0025722 6.96894639 2.30252075 6.37442017 C1.60513794 6.2493811 0.90775513 6.12434204 0.1892395 5.99551392 C-1.52054601 5.69103157 -3.2337371 5.40578082 -4.94747925 5.12442017 C-5.50997925 3.18692017 -5.50997925 3.18692017 -5.94747925 1.12442017 C-4.27411929 -0.54893979 -2.23360016 0.00479121 0 0 Z " fill="#000000" transform="translate(2368.947479248047,699.8755798339844)"/>
<path d="M0 0 C1.31101121 6.69356883 0.86651893 13.17474113 0.5703125 19.9609375 C-0.4084344 45.69177959 -0.15036559 71.45624961 -0.12856746 97.20152259 C-0.12422509 102.94531363 -0.12733512 108.68908275 -0.1321975 114.43287241 C-0.13676181 120.05580905 -0.13736446 125.67873635 -0.13475883 131.30167425 C-0.13322029 134.62552879 -0.1333434 137.949357 -0.13629532 141.27321243 C-0.97886053 164.43740609 -0.97886053 164.43740609 3 187 C7.0493822 190.69322239 12.07559914 190.73696946 17.3125 191.1875 C18.56643555 191.3102832 18.56643555 191.3102832 19.84570312 191.43554688 C21.89609388 191.63472769 23.94793562 191.81887282 26 192 C26.38218767 193.65614657 26.71395102 195.32457024 27 197 C25.21142938 198.78857062 22.79876866 198.11990579 20.41790771 198.12442017 C19.61733948 198.12082489 18.81677124 198.11722961 17.99194336 198.11352539 C17.15299026 198.11367142 16.31403717 198.11381744 15.44966125 198.1139679 C12.66302956 198.1132685 9.87646384 198.10547485 7.08984375 198.09765625 C5.16313209 198.09579217 3.23641995 198.09436822 1.30970764 198.09336853 C-3.77187397 198.08954259 -8.8534272 198.07971166 -13.93499756 198.06866455 C-19.11616634 198.05845206 -24.29733969 198.05387126 -29.47851562 198.04882812 C-39.65235625 198.03808946 -49.82617577 198.02101213 -60 198 C-60.38218767 196.34385343 -60.71395102 194.67542976 -61 193 C-59.45654314 191.45654314 -57.88526807 191.73099359 -55.73828125 191.5703125 C-54.86623047 191.49683594 -53.99417969 191.42335938 -53.09570312 191.34765625 C-51.26025194 191.20082016 -49.42430344 191.0600566 -47.58789062 190.92578125 C-42.45329157 190.48125984 -38.4303741 189.87548319 -34 187 C-29.34348716 178.35219045 -30.85405352 165.29718646 -30.87060547 155.73583984 C-30.86885315 154.46933594 -30.86710083 153.20283203 -30.86529541 151.89794922 C-30.86078598 148.46474076 -30.86248231 145.03156277 -30.8656745 141.59835386 C-30.86822647 137.99319095 -30.86585322 134.38803046 -30.86428833 130.78286743 C-30.8624772 124.74277278 -30.86484754 118.70269043 -30.86962891 112.66259766 C-30.8750942 105.67779133 -30.87328828 98.69301409 -30.8678025 91.70820844 C-30.86327055 85.69694214 -30.86262048 79.6856846 -30.86524117 73.67441714 C-30.86680033 70.08965554 -30.86700707 66.50490766 -30.86370468 62.92014694 C-30.86028999 58.93682461 -30.86501687 54.95353523 -30.87060547 50.97021484 C-30.86858124 49.78066193 -30.86655701 48.59110901 -30.86447144 47.36550903 C-30.86729126 46.2862616 -30.87011108 45.20701416 -30.87301636 44.09506226 C-30.87339338 43.15382696 -30.87377041 42.21259167 -30.87415886 41.24283409 C-30.8534435 38.96277507 -30.8534435 38.96277507 -32 37 C-36.09379926 37.62825632 -39.35720783 38.9782526 -43.0703125 40.79296875 C-44.21371094 41.34017578 -45.35710938 41.88738281 -46.53515625 42.45117188 C-48.33852024 43.3234192 -50.1418566 44.19577864 -51.93994141 45.07885742 C-53.68579612 45.93329759 -55.44045264 46.76967956 -57.1953125 47.60546875 C-58.75789795 48.36573364 -58.75789795 48.36573364 -60.35205078 49.14135742 C-61.22587402 49.42470947 -62.09969727 49.70806152 -63 50 C-63.99 49.34 -64.98 48.68 -66 48 C-65.75247919 44.49139257 -65.2315261 43.22265094 -62.65625 40.74609375 C-61.6146875 39.98425781 -60.573125 39.22242188 -59.5 38.4375 C-58.9239502 38.01114258 -58.34790039 37.58478516 -57.75439453 37.14550781 C-55.84895766 35.7451204 -53.92771284 34.36954069 -52 33 C-51.34870117 32.53674316 -50.69740234 32.07348633 -50.02636719 31.59619141 C-47.26842982 29.64035527 -44.50576704 27.69150813 -41.73583984 25.75268555 C-36.13931483 21.83087352 -30.62107336 17.8111567 -25.125 13.75 C-24.32352539 13.16049561 -23.52205078 12.57099121 -22.69628906 11.96362305 C-19.2782765 9.44551686 -15.87409575 6.91808655 -12.53125 4.30078125 C-11.5721875 3.56214844 -10.613125 2.82351563 -9.625 2.0625 C-8.83351562 1.43472656 -8.04203125 0.80695312 -7.2265625 0.16015625 C-4.40167531 -1.31175865 -2.98005522 -0.9319254 0 0 Z " fill="#000000" transform="translate(90,697)"/>
<path d="M0 0 C22.44 0 44.88 0 68 0 C68 4.95 68 9.9 68 15 C45.56 15 23.12 15 0 15 C0 10.05 0 5.1 0 0 Z " fill="#000000" transform="translate(885,794)"/>
<path d="M0 0 C22.11 0 44.22 0 67 0 C67 4.95 67 9.9 67 15 C44.89 15 22.78 15 0 15 C0 10.05 0 5.1 0 0 Z " fill="#000000" transform="translate(1565,794)"/>
<path d="M0 0 C22.11 0 44.22 0 67 0 C67 4.95 67 9.9 67 15 C44.89 15 22.78 15 0 15 C0 10.05 0 5.1 0 0 Z " fill="#000000" transform="translate(185,794)"/>
<path d="M0 0 C3.3 0 6.6 0 10 0 C11.34117853 3.60129621 12.6715839 7.20647859 14 10.8125 C14.3815625 11.83666016 14.763125 12.86082031 15.15625 13.91601562 C15.5171875 14.89892578 15.878125 15.88183594 16.25 16.89453125 C16.75273438 18.25348511 16.75273438 18.25348511 17.265625 19.63989258 C18 22 18 22 18 25 C18.66 25 19.32 25 20 25 C20.20625 23.845 20.4125 22.69 20.625 21.5 C22.24479591 14.07990551 25.24650329 7.05691768 28 0 C30.97 0 33.94 0 37 0 C37 11.88 37 23.76 37 36 C34.69 36 32.38 36 30 36 C29.67 30.06 29.34 24.12 29 18 C27.06727565 23.54858587 27.06727565 23.54858587 25.14086914 29.09936523 C24.89973389 29.78716064 24.65859863 30.47495605 24.41015625 31.18359375 C24.16402588 31.89056396 23.91789551 32.59753418 23.66430664 33.32592773 C23 35 23 35 22 36 C19.69 36 17.38 36 15 36 C12.69 29.73 10.38 23.46 8 17 C7.67 23.27 7.34 29.54 7 36 C4.69 36 2.38 36 0 36 C0 24.12 0 12.24 0 0 Z " fill="#000000" transform="translate(1855,932)"/>
<path d="M0 0 C7 0 7 0 8.7409668 1.28173828 C9.33905151 2.16708252 9.33905151 2.16708252 9.94921875 3.0703125 C10.40490234 3.72 10.86058594 4.3696875 11.33007812 5.0390625 C11.77802734 5.72742188 12.22597656 6.41578125 12.6875 7.125 C13.14705078 7.79015625 13.60660156 8.4553125 14.08007812 9.140625 C15.41183835 11.07842162 16.70852235 13.03516394 18 15 C19.98 17.97 19.98 17.97 22 21 C22.33 14.07 22.66 7.14 23 0 C25.31 0 27.62 0 30 0 C30 11.88 30 23.76 30 36 C23 36 23 36 20.55859375 33.69140625 C19.85863281 32.65886719 19.15867187 31.62632812 18.4375 30.5625 C18.06181885 30.02206055 17.6861377 29.48162109 17.29907227 28.92480469 C16.1764546 27.29879576 15.08783175 25.64948402 14 24 C13.3709375 23.07574219 12.741875 22.15148437 12.09375 21.19921875 C10.70657913 19.14790711 9.34956134 17.07624822 8 15 C7.67 21.93 7.34 28.86 7 36 C4.69 36 2.38 36 0 36 C0 24.12 0 12.24 0 0 Z " fill="#01B8CD" transform="translate(2098,932)"/>
<path d="M0 0 C3.67125 -0.061875 7.3425 -0.12375 11.125 -0.1875 C12.84420654 -0.22846802 12.84420654 -0.22846802 14.59814453 -0.27026367 C20.1348751 -0.31540798 24.26127408 -0.2302315 29 3 C31.62998478 6.34725336 31.43342998 9.8824152 31 14 C28.9209015 17.22618733 27.19960471 18.8669302 24 21 C24.48210938 21.61488281 24.96421875 22.22976563 25.4609375 22.86328125 C26.40839844 24.07564453 26.40839844 24.07564453 27.375 25.3125 C28.00148438 26.11300781 28.62796875 26.91351562 29.2734375 27.73828125 C33 32.6199095 33 32.6199095 33 36 C28.14436886 37.14769463 28.14436886 37.14769463 25 36 C22.91707357 33.34866936 21.19566831 30.66530413 19.44775391 27.79345703 C17.67611913 25.01822836 16.39710279 23.2021724 13.4296875 21.69140625 C10.71682839 21.07745119 10.71682839 21.07745119 7 21 C7 25.95 7 30.9 7 36 C4.69 36 2.38 36 0 36 C0 24.12 0 12.24 0 0 Z M7 6 C7 8.97 7 11.94 7 15 C9.27024968 15.08097324 11.54132075 15.13917704 13.8125 15.1875 C15.70935547 15.23970703 15.70935547 15.23970703 17.64453125 15.29296875 C20.93962059 15.28873443 20.93962059 15.28873443 22.9609375 13.6171875 C24.21558606 12.02866195 24.21558606 12.02866195 23.8125 9.9375 C23.06529664 7.81287474 23.06529664 7.81287474 21 6 C17.64255888 5.75622117 17.64255888 5.75622117 13.875 5.875 C12.59367187 5.89304687 11.31234375 5.91109375 9.9921875 5.9296875 C9.00476562 5.95289063 8.01734375 5.97609375 7 6 Z " fill="#000000" transform="translate(2517,932)"/>
<path d="M0 0 C3.67125 -0.061875 7.3425 -0.12375 11.125 -0.1875 C12.84420654 -0.22846802 12.84420654 -0.22846802 14.59814453 -0.27026367 C20.1348751 -0.31540798 24.26127408 -0.2302315 29 3 C31.62998478 6.34725336 31.43342998 9.8824152 31 14 C28.9209015 17.22618733 27.19960471 18.8669302 24 21 C24.48210937 21.61488281 24.96421875 22.22976563 25.4609375 22.86328125 C26.40839844 24.07564453 26.40839844 24.07564453 27.375 25.3125 C28.00148438 26.11300781 28.62796875 26.91351562 29.2734375 27.73828125 C33 32.6199095 33 32.6199095 33 36 C28.14436886 37.14769463 28.14436886 37.14769463 25 36 C22.91707357 33.34866936 21.19566831 30.66530413 19.44775391 27.79345703 C17.67611913 25.01822836 16.39710279 23.2021724 13.4296875 21.69140625 C10.71682839 21.07745119 10.71682839 21.07745119 7 21 C7 25.95 7 30.9 7 36 C4.69 36 2.38 36 0 36 C0 24.12 0 12.24 0 0 Z M7 6 C7 8.97 7 11.94 7 15 C9.27024968 15.08097324 11.54132075 15.13917704 13.8125 15.1875 C15.70935547 15.23970703 15.70935547 15.23970703 17.64453125 15.29296875 C20.93962059 15.28873443 20.93962059 15.28873443 22.9609375 13.6171875 C24.21558606 12.02866195 24.21558606 12.02866195 23.8125 9.9375 C23.06529664 7.81287474 23.06529664 7.81287474 21 6 C17.64255888 5.75622117 17.64255888 5.75622117 13.875 5.875 C12.59367187 5.89304687 11.31234375 5.91109375 9.9921875 5.9296875 C9.00476562 5.95289063 8.01734375 5.97609375 7 6 Z " fill="#000000" transform="translate(1756,932)"/>
<path d="M0 0 C2.66015625 2.15625 2.66015625 2.15625 4.66015625 5.15625 C4.78515625 7.84375 4.78515625 7.84375 4.66015625 10.15625 C2.68015625 10.48625 0.70015625 10.81625 -1.33984375 11.15625 C-1.75234375 10.3725 -2.16484375 9.58875 -2.58984375 8.78125 C-4.47178832 5.95833315 -5.10474639 5.03060064 -8.33984375 4.15625 C-12.281401 4.09123462 -15.35732187 4.53570987 -18.71484375 6.65625 C-21.38398615 10.76262292 -22.87048033 15.27644106 -21.96484375 20.19140625 C-20.86016277 23.14768319 -19.46889553 25.04512208 -17.08984375 27.09375 C-12.69500762 28.79175487 -8.99878855 28.55295419 -4.46484375 27.46875 C-3.76359375 27.035625 -3.06234375 26.6025 -2.33984375 26.15625 C-2.00984375 24.50625 -1.67984375 22.85625 -1.33984375 21.15625 C-4.96984375 21.15625 -8.59984375 21.15625 -12.33984375 21.15625 C-12.33984375 19.17625 -12.33984375 17.19625 -12.33984375 15.15625 C-6.39984375 15.15625 -0.45984375 15.15625 5.66015625 15.15625 C5.66015625 20.10625 5.66015625 25.05625 5.66015625 30.15625 C-2.66082402 34.52829048 -9.55050504 36.68978419 -18.96484375 34.03125 C-23.66523431 32.31764935 -25.66075385 30.37784621 -28.33984375 26.15625 C-30.99537556 19.87953844 -30.86113314 13.50515337 -28.62109375 7.1015625 C-26.81209372 3.46796762 -24.38168242 0.64995051 -20.73046875 -1.18359375 C-14.02045755 -3.03652168 -6.14829443 -3.39414617 0 0 Z " fill="#000000" transform="translate(2494.33984375,933.84375)"/>
<path d="M0 0 C4.18573064 2.20735467 6.66716383 5.10046075 8.66015625 9.31640625 C10.23696229 16.31959998 10.20296839 22.93677714 6.66015625 29.31640625 C2.57863732 34.22623344 -2.50113951 36.05356327 -8.71484375 36.62890625 C-14.51346008 36.12902553 -18.71092735 34.66203284 -23.21484375 30.94140625 C-28.07099642 24.94262942 -27.97617334 18.75035189 -27.33984375 11.31640625 C-25.603686 6.01147979 -22.69460555 3.55931397 -18.33984375 0.31640625 C-13.33365536 -2.18668794 -5.27107456 -1.53996335 0 0 Z M-17.33984375 7.31640625 C-20.67443247 11.98483046 -21.24607865 16.74953472 -20.33984375 22.31640625 C-18.264191 26.39358129 -16.58418727 28.64815423 -12.33984375 30.31640625 C-9.18714697 30.58712082 -6.36689558 30.23369468 -3.33984375 29.31640625 C0.04590019 26.3538803 1.38650407 24.23998235 2.66015625 19.94140625 C2.66015625 14.67814854 1.48252827 10.33403242 -2.08984375 6.37890625 C-7.77042686 3.69640867 -12.17235543 3.67567584 -17.33984375 7.31640625 Z " fill="#000000" transform="translate(2591.33984375,932.68359375)"/>
<path d="M0 0 C4.18573064 2.20735467 6.66716383 5.10046075 8.66015625 9.31640625 C10.23696229 16.31959998 10.20296839 22.93677714 6.66015625 29.31640625 C2.57863732 34.22623344 -2.50113951 36.05356327 -8.71484375 36.62890625 C-14.51346008 36.12902553 -18.71092735 34.66203284 -23.21484375 30.94140625 C-28.07099642 24.94262942 -27.97617334 18.75035189 -27.33984375 11.31640625 C-25.603686 6.01147979 -22.69460555 3.55931397 -18.33984375 0.31640625 C-13.33365536 -2.18668794 -5.27107456 -1.53996335 0 0 Z M-17.33984375 7.31640625 C-20.67443247 11.98483046 -21.24607865 16.74953472 -20.33984375 22.31640625 C-18.264191 26.39358129 -16.58418727 28.64815423 -12.33984375 30.31640625 C-9.18714697 30.58712082 -6.36689558 30.23369468 -3.33984375 29.31640625 C0.04590019 26.3538803 1.38650407 24.23998235 2.66015625 19.94140625 C2.66015625 14.67814854 1.48252827 10.33403242 -2.08984375 6.37890625 C-7.77042686 3.69640867 -12.17235543 3.67567584 -17.33984375 7.31640625 Z " fill="#01B8CD" transform="translate(2172.33984375,932.68359375)"/>
<path d="M0 0 C4.18573064 2.20735467 6.66716383 5.10046075 8.66015625 9.31640625 C10.23696229 16.31959998 10.20296839 22.93677714 6.66015625 29.31640625 C2.57863732 34.22623344 -2.50113951 36.05356327 -8.71484375 36.62890625 C-14.51346008 36.12902553 -18.71092735 34.66203284 -23.21484375 30.94140625 C-28.07099642 24.94262942 -27.97617334 18.75035189 -27.33984375 11.31640625 C-25.603686 6.01147979 -22.69460555 3.55931397 -18.33984375 0.31640625 C-13.33365536 -2.18668794 -5.27107456 -1.53996335 0 0 Z M-17.33984375 7.31640625 C-20.67443247 11.98483046 -21.24607865 16.74953472 -20.33984375 22.31640625 C-18.264191 26.39358129 -16.58418727 28.64815423 -12.33984375 30.31640625 C-9.18714697 30.58712082 -6.36689558 30.23369468 -3.33984375 29.31640625 C0.04590019 26.3538803 1.38650407 24.23998235 2.66015625 19.94140625 C2.66015625 14.67814854 1.48252827 10.33403242 -2.08984375 6.37890625 C-7.77042686 3.69640867 -12.17235543 3.67567584 -17.33984375 7.31640625 Z " fill="#000000" transform="translate(1829.33984375,932.68359375)"/>
<path d="M0 0 C2.31 0 4.62 0 7 0 C7 4.62 7 9.24 7 14 C12.28 14 17.56 14 23 14 C23 9.38 23 4.76 23 0 C25.31 0 27.62 0 30 0 C30 11.88 30 23.76 30 36 C27.69 36 25.38 36 23 36 C23 30.72 23 25.44 23 20 C17.72 20 12.44 20 7 20 C7 25.28 7 30.56 7 36 C4.69 36 2.38 36 0 36 C0 24.12 0 12.24 0 0 Z " fill="#000000" transform="translate(1978,932)"/>
<path d="M0 0 C9.24 0 18.48 0 28 0 C28 1.98 28 3.96 28 6 C21.07 6 14.14 6 7 6 C7 8.97 7 11.94 7 15 C13.6 15 20.2 15 27 15 C27 16.65 27 18.3 27 20 C20.4 20 13.8 20 7 20 C7 23.63 7 27.26 7 31 C14.26 31 21.52 31 29 31 C29 32.65 29 34.3 29 36 C19.43 36 9.86 36 0 36 C0 24.12 0 12.24 0 0 Z " fill="#000000" transform="translate(2026,932)"/>
<path d="M0 0 C2.31 0 4.62 0 7 0 C7.01981934 0.77190674 7.03963867 1.54381348 7.06005859 2.33911133 C7.15521143 5.83058958 7.26493047 9.32146152 7.375 12.8125 C7.4059375 14.02744141 7.436875 15.24238281 7.46875 16.49414062 C7.50742188 17.65751953 7.54609375 18.82089844 7.5859375 20.01953125 C7.6173584 21.09307861 7.6487793 22.16662598 7.68115234 23.27270508 C7.81592307 26.2160765 7.81592307 26.2160765 10 29 C13.47145233 29.83572001 15.95649876 30.35698727 19.375 29.1875 C21.15088244 28.08014273 21.15088244 28.08014273 22 26 C22.15378852 24.04225931 22.24971463 22.07982648 22.31640625 20.1171875 C22.35830078 18.95058594 22.40019531 17.78398438 22.44335938 16.58203125 C22.48267578 15.35871094 22.52199219 14.13539063 22.5625 12.875 C22.60568359 11.64394531 22.64886719 10.41289063 22.69335938 9.14453125 C22.79968704 6.09647147 22.90171781 3.0483281 23 0 C25.31 0 27.62 0 30 0 C30.12426099 4.01993847 30.21464411 8.03912279 30.2746582 12.06054688 C30.2996928 13.42630503 30.33373218 14.79193067 30.37719727 16.15722656 C30.77470959 28.97115313 30.77470959 28.97115313 27.65625 32.84375 C23.11473379 36.53039257 18.93035859 37.42936322 13.08984375 37.25 C9.49913935 36.82045779 6.04933291 35.9810522 3 34 C0.02396454 29.99056818 -0.35825257 27.10777802 -0.29296875 22.16796875 C-0.28330078 20.87568359 -0.27363281 19.58339844 -0.26367188 18.25195312 C-0.23860985 16.8971293 -0.21321506 15.54231159 -0.1875 14.1875 C-0.17244013 12.81316555 -0.15875401 11.43881532 -0.14648438 10.06445312 C-0.11116628 6.70923368 -0.06183851 3.35481834 0 0 Z " fill="#000000" transform="translate(2617,932)"/>
<path d="M0 0 C2.31 0 4.62 0 7 0 C7.01981934 0.77190674 7.03963867 1.54381348 7.06005859 2.33911133 C7.15521143 5.83058958 7.26493047 9.32146152 7.375 12.8125 C7.4059375 14.02744141 7.436875 15.24238281 7.46875 16.49414062 C7.50742188 17.65751953 7.54609375 18.82089844 7.5859375 20.01953125 C7.6173584 21.09307861 7.6487793 22.16662598 7.68115234 23.27270508 C7.81592307 26.2160765 7.81592307 26.2160765 10 29 C13.47145233 29.83572001 15.95649876 30.35698727 19.375 29.1875 C21.15088244 28.08014273 21.15088244 28.08014273 22 26 C22.15378852 24.04225931 22.24971463 22.07982648 22.31640625 20.1171875 C22.35830078 18.95058594 22.40019531 17.78398438 22.44335938 16.58203125 C22.48267578 15.35871094 22.52199219 14.13539063 22.5625 12.875 C22.60568359 11.64394531 22.64886719 10.41289063 22.69335938 9.14453125 C22.79968704 6.09647147 22.90171781 3.0483281 23 0 C25.31 0 27.62 0 30 0 C30.12426099 4.01993847 30.21464411 8.03912279 30.2746582 12.06054688 C30.2996928 13.42630503 30.33373218 14.79193067 30.37719727 16.15722656 C30.77470959 28.97115313 30.77470959 28.97115313 27.65625 32.84375 C23.11473379 36.53039257 18.93035859 37.42936322 13.08984375 37.25 C9.49913935 36.82045779 6.04933291 35.9810522 3 34 C0.02396454 29.99056818 -0.35825257 27.10777802 -0.29296875 22.16796875 C-0.28330078 20.87568359 -0.27363281 19.58339844 -0.26367188 18.25195312 C-0.23860985 16.8971293 -0.21321506 15.54231159 -0.1875 14.1875 C-0.17244013 12.81316555 -0.15875401 11.43881532 -0.14648438 10.06445312 C-0.11116628 6.70923368 -0.06183851 3.35481834 0 0 Z " fill="#01B8CD" transform="translate(2313,932)"/>
<path d="M0 0 C2.64 0 5.28 0 8 0 C11.78258449 7.99534525 15.37096289 16.06686801 18.875 24.1875 C19.28032959 25.12037842 19.68565918 26.05325684 20.10327148 27.0144043 C20.47911377 27.89008057 20.85495605 28.76575684 21.2421875 29.66796875 C21.5810498 30.45453857 21.91991211 31.2411084 22.26904297 32.05151367 C23 34 23 34 23 36 C20.36 36 17.72 36 15 36 C14.32880451 34.5437455 13.66318193 33.08492133 13 31.625 C12.62875 30.81289063 12.2575 30.00078125 11.875 29.1640625 C11 27 11 27 11 25 C4.565 25.495 4.565 25.495 -2 26 C-3.32 29.3 -4.64 32.6 -6 36 C-8.31 36 -10.62 36 -13 36 C-12.39451018 31.31294407 -11.06579277 27.1971335 -9.27734375 22.8515625 C-9.01240616 22.19417084 -8.74746857 21.53677917 -8.47450256 20.85946655 C-7.63451863 18.77895646 -6.78616677 16.70198123 -5.9375 14.625 C-5.36337408 13.20725717 -4.78980069 11.78929046 -4.21679688 10.37109375 C-2.81757872 6.91145013 -1.41083966 3.45492329 0 0 Z M4 9 C3.32880451 10.4562545 2.66318193 11.91507867 2 13.375 C1.62875 14.18710937 1.2575 14.99921875 0.875 15.8359375 C-0.12495013 17.91998433 -0.12495013 17.91998433 0 20 C2.97 20 5.94 20 9 20 C7.68 16.37 6.36 12.74 5 9 C4.67 9 4.34 9 4 9 Z " fill="#01B8CD" transform="translate(2276,932)"/>
<path d="M0 0 C3.34125 -0.061875 6.6825 -0.12375 10.125 -0.1875 C11.68758545 -0.22846802 11.68758545 -0.22846802 13.28173828 -0.27026367 C18.59187178 -0.31775765 22.46842359 -0.10550524 27 3 C29.69657104 7.04485657 29.5422677 10.25307196 29 15 C27.78998503 17.84353518 26.90762448 19.37382638 24.375 21.12109375 C21.01806993 22.36337873 17.77507404 22.21162753 14.25 22.125 C13.20392578 22.11146484 13.20392578 22.11146484 12.13671875 22.09765625 C10.42433042 22.07419888 8.71211996 22.03833104 7 22 C7 26.62 7 31.24 7 36 C4.69 36 2.38 36 0 36 C0 24.12 0 12.24 0 0 Z M7 6 C7 9.63 7 13.26 7 17 C14.34323381 17.50019045 14.34323381 17.50019045 21 15 C22.16448881 12.09648876 22.16448881 12.09648876 22 9 C20.9498529 7.19296097 20.9498529 7.19296097 19 6 C16.02807238 5.63680691 16.02807238 5.63680691 12.8125 5.8125 C11.18248047 5.85310547 11.18248047 5.85310547 9.51953125 5.89453125 C8.68808594 5.92933594 7.85664063 5.96414063 7 6 Z " fill="#000000" transform="translate(2666,932)"/>
<path d="M0 0 C8.58 0 17.16 0 26 0 C26 1.98 26 3.96 26 6 C19.73 6 13.46 6 7 6 C7 8.97 7 11.94 7 15 C12.28 15 17.56 15 23 15 C23 16.65 23 18.3 23 20 C17.72 20 12.44 20 7 20 C7 25.28 7 30.56 7 36 C4.69 36 2.38 36 0 36 C0 24.12 0 12.24 0 0 Z " fill="#01B8CD" transform="translate(2227,932)"/>
<path d="M0 0 C8.58 0 17.16 0 26 0 C26 1.98 26 3.96 26 6 C19.73 6 13.46 6 7 6 C7 8.97 7 11.94 7 15 C12.28 15 17.56 15 23 15 C23 16.65 23 18.3 23 20 C17.72 20 12.44 20 7 20 C7 25.28 7 30.56 7 36 C4.69 36 2.38 36 0 36 C0 24.12 0 12.24 0 0 Z " fill="#000000" transform="translate(1713,932)"/>
<path d="M0 0 C10.23 0 20.46 0 31 0 C31 1.98 31 3.96 31 6 C27.04 6 23.08 6 19 6 C19 15.9 19 25.8 19 36 C16.69 36 14.38 36 12 36 C12 26.1 12 16.2 12 6 C8.04 6 4.08 6 0 6 C0 4.02 0 2.04 0 0 Z " fill="#01B8CD" transform="translate(2395,932)"/>
<path d="M0 0 C10.23 0 20.46 0 31 0 C31 1.98 31 3.96 31 6 C27.04 6 23.08 6 19 6 C19 15.9 19 25.8 19 36 C16.69 36 14.38 36 12 36 C12 26.1 12 16.2 12 6 C8.04 6 4.08 6 0 6 C0 4.02 0 2.04 0 0 Z " fill="#000000" transform="translate(1932,932)"/>
<path d="M0 0 C2.31 0 4.62 0 7 0 C7 10.23 7 20.46 7 31 C12.94 31 18.88 31 25 31 C25 32.65 25 34.3 25 36 C16.75 36 8.5 36 0 36 C0 24.12 0 12.24 0 0 Z " fill="#01B8CD" transform="translate(2360,932)"/>
<path d="M0 0 C5.28 0 10.56 0 16 0 C16 1.98 16 3.96 16 6 C10.72 6 5.44 6 0 6 C0 4.02 0 2.04 0 0 Z " fill="#000000" transform="translate(2195,952)"/>
</svg>
